<mxfile host="app.diagrams.net" modified="2020-06-25T09:59:36.260Z" agent="5.0 (Windows NT 10.0; Win64; x64) AppleWebKit/537.36 (KHTML, like Gecko) Chrome/83.0.4103.106 Safari/537.36" etag="MyJ61xATo-Q9po6RfVuK" version="13.3.1" type="github">
  <diagram id="9sso7XqLUWQcRpqye9ZH" name="EBS S3 EFS">
    <mxGraphModel dx="1278" dy="618" grid="1" gridSize="10" guides="1" tooltips="1" connect="1" arrows="1" fold="1" page="1" pageScale="1" pageWidth="827" pageHeight="1169" math="0" shadow="0">
      <root>
        <mxCell id="0" />
        <mxCell id="1" parent="0" />
        <mxCell id="7ZlgL_FnNeLyH_ivH3gK-12" value="" style="whiteSpace=wrap;html=1;aspect=fixed;" parent="1" vertex="1">
          <mxGeometry x="10" y="30" width="460" height="460" as="geometry" />
        </mxCell>
        <mxCell id="7ZlgL_FnNeLyH_ivH3gK-1" value="ec2 instance (VM1)" style="whiteSpace=wrap;html=1;aspect=fixed;" parent="1" vertex="1">
          <mxGeometry x="50" y="150" width="50" height="50" as="geometry" />
        </mxCell>
        <mxCell id="7ZlgL_FnNeLyH_ivH3gK-2" value="hypervisor&lt;br&gt;xen/kvm&lt;br&gt;on physical server hardware" style="whiteSpace=wrap;html=1;aspect=fixed;" parent="1" vertex="1">
          <mxGeometry x="190" y="150" width="80" height="80" as="geometry" />
        </mxCell>
        <mxCell id="7ZlgL_FnNeLyH_ivH3gK-3" value="AMI&amp;nbsp;&lt;br&gt;(VM template)&lt;br&gt;Red Hat Linux - 8GB HDD" style="rounded=1;whiteSpace=wrap;html=1;" parent="1" vertex="1">
          <mxGeometry x="30" y="60" width="100" height="60" as="geometry" />
        </mxCell>
        <mxCell id="7ZlgL_FnNeLyH_ivH3gK-4" value="" style="endArrow=none;html=1;entryX=0.52;entryY=0.962;entryDx=0;entryDy=0;entryPerimeter=0;" parent="1" source="7ZlgL_FnNeLyH_ivH3gK-1" target="7ZlgL_FnNeLyH_ivH3gK-3" edge="1">
          <mxGeometry width="50" height="50" relative="1" as="geometry">
            <mxPoint x="150" y="210" as="sourcePoint" />
            <mxPoint x="200" y="160" as="targetPoint" />
          </mxGeometry>
        </mxCell>
        <mxCell id="7ZlgL_FnNeLyH_ivH3gK-5" value="" style="endArrow=none;html=1;exitX=1;exitY=0.5;exitDx=0;exitDy=0;" parent="1" source="7ZlgL_FnNeLyH_ivH3gK-1" target="7ZlgL_FnNeLyH_ivH3gK-31" edge="1">
          <mxGeometry width="50" height="50" relative="1" as="geometry">
            <mxPoint x="150" y="210" as="sourcePoint" />
            <mxPoint x="200" y="160" as="targetPoint" />
          </mxGeometry>
        </mxCell>
        <mxCell id="7ZlgL_FnNeLyH_ivH3gK-6" value="Elastic Block Storage (EBS)" style="rounded=1;whiteSpace=wrap;html=1;" parent="1" vertex="1">
          <mxGeometry x="20" y="270" width="440" height="60" as="geometry" />
        </mxCell>
        <mxCell id="7ZlgL_FnNeLyH_ivH3gK-7" value="EBS Vol&lt;br&gt;8GB" style="shape=cylinder;whiteSpace=wrap;html=1;boundedLbl=1;backgroundOutline=1;" parent="1" vertex="1">
          <mxGeometry x="40" y="270" width="60" height="50" as="geometry" />
        </mxCell>
        <mxCell id="7ZlgL_FnNeLyH_ivH3gK-8" value="" style="endArrow=none;html=1;exitX=0.5;exitY=0;exitDx=0;exitDy=0;" parent="1" source="7ZlgL_FnNeLyH_ivH3gK-7" edge="1">
          <mxGeometry width="50" height="50" relative="1" as="geometry">
            <mxPoint x="30" y="250" as="sourcePoint" />
            <mxPoint x="80" y="200" as="targetPoint" />
          </mxGeometry>
        </mxCell>
        <mxCell id="7ZlgL_FnNeLyH_ivH3gK-9" value="/dev/sdc" style="text;html=1;strokeColor=none;fillColor=none;align=center;verticalAlign=middle;whiteSpace=wrap;rounded=0;" parent="1" vertex="1">
          <mxGeometry x="110" y="170" width="40" height="20" as="geometry" />
        </mxCell>
        <mxCell id="7ZlgL_FnNeLyH_ivH3gK-10" value="EBS Vol&lt;br&gt;20GB" style="shape=cylinder;whiteSpace=wrap;html=1;boundedLbl=1;backgroundOutline=1;" parent="1" vertex="1">
          <mxGeometry x="110" y="270" width="60" height="50" as="geometry" />
        </mxCell>
        <mxCell id="7ZlgL_FnNeLyH_ivH3gK-11" value="" style="endArrow=none;html=1;entryX=0.612;entryY=0.988;entryDx=0;entryDy=0;entryPerimeter=0;" parent="1" source="7ZlgL_FnNeLyH_ivH3gK-10" target="7ZlgL_FnNeLyH_ivH3gK-1" edge="1">
          <mxGeometry width="50" height="50" relative="1" as="geometry">
            <mxPoint x="80" y="280" as="sourcePoint" />
            <mxPoint x="90" y="210" as="targetPoint" />
          </mxGeometry>
        </mxCell>
        <mxCell id="7ZlgL_FnNeLyH_ivH3gK-13" value="Ireland Region AVAILABILITY ZONE A" style="text;html=1;strokeColor=none;fillColor=none;align=center;verticalAlign=middle;whiteSpace=wrap;rounded=0;" parent="1" vertex="1">
          <mxGeometry x="300" y="60" width="40" height="20" as="geometry" />
        </mxCell>
        <mxCell id="7ZlgL_FnNeLyH_ivH3gK-14" value="" style="whiteSpace=wrap;html=1;aspect=fixed;" parent="1" vertex="1">
          <mxGeometry x="490" y="30" width="460" height="460" as="geometry" />
        </mxCell>
        <mxCell id="7ZlgL_FnNeLyH_ivH3gK-15" value="Ireland Region AVAILABILITY ZONE B" style="text;html=1;strokeColor=none;fillColor=none;align=center;verticalAlign=middle;whiteSpace=wrap;rounded=0;" parent="1" vertex="1">
          <mxGeometry x="560" y="60" width="40" height="20" as="geometry" />
        </mxCell>
        <mxCell id="7ZlgL_FnNeLyH_ivH3gK-19" value="Elastic Block Storage (EBS)" style="rounded=1;whiteSpace=wrap;html=1;" parent="1" vertex="1">
          <mxGeometry x="500" y="270" width="440" height="60" as="geometry" />
        </mxCell>
        <mxCell id="7ZlgL_FnNeLyH_ivH3gK-21" value="ec2 instance (VM2)" style="whiteSpace=wrap;html=1;aspect=fixed;" parent="1" vertex="1">
          <mxGeometry x="570" y="140" width="50" height="50" as="geometry" />
        </mxCell>
        <mxCell id="7ZlgL_FnNeLyH_ivH3gK-22" value="EBS Vol&lt;br&gt;8GB" style="shape=cylinder;whiteSpace=wrap;html=1;boundedLbl=1;backgroundOutline=1;" parent="1" vertex="1">
          <mxGeometry x="510" y="275" width="60" height="50" as="geometry" />
        </mxCell>
        <mxCell id="7ZlgL_FnNeLyH_ivH3gK-23" value="EBS Vol&lt;br&gt;20GB" style="shape=cylinder;whiteSpace=wrap;html=1;boundedLbl=1;backgroundOutline=1;" parent="1" vertex="1">
          <mxGeometry x="580" y="275" width="60" height="50" as="geometry" />
        </mxCell>
        <mxCell id="7ZlgL_FnNeLyH_ivH3gK-25" value="" style="endArrow=none;html=1;entryX=0.612;entryY=0.988;entryDx=0;entryDy=0;entryPerimeter=0;exitX=0.602;exitY=0.041;exitDx=0;exitDy=0;exitPerimeter=0;" parent="1" source="7ZlgL_FnNeLyH_ivH3gK-22" edge="1">
          <mxGeometry width="50" height="50" relative="1" as="geometry">
            <mxPoint x="631.9365271966526" y="260.6" as="sourcePoint" />
            <mxPoint x="588.0699999999999" y="189.99999999999986" as="targetPoint" />
          </mxGeometry>
        </mxCell>
        <mxCell id="7ZlgL_FnNeLyH_ivH3gK-26" value="" style="endArrow=none;html=1;entryX=0.5;entryY=1;entryDx=0;entryDy=0;" parent="1" source="7ZlgL_FnNeLyH_ivH3gK-23" target="7ZlgL_FnNeLyH_ivH3gK-21" edge="1">
          <mxGeometry width="50" height="50" relative="1" as="geometry">
            <mxPoint x="556.1199999999999" y="287.05000000000007" as="sourcePoint" />
            <mxPoint x="598.0699999999999" y="199.9999999999999" as="targetPoint" />
          </mxGeometry>
        </mxCell>
        <mxCell id="7ZlgL_FnNeLyH_ivH3gK-27" value="S3" style="rounded=1;whiteSpace=wrap;html=1;" parent="1" vertex="1">
          <mxGeometry x="20" y="510" width="950" height="60" as="geometry" />
        </mxCell>
        <mxCell id="7ZlgL_FnNeLyH_ivH3gK-28" value="EFS (NAS over NFS)" style="rounded=1;whiteSpace=wrap;html=1;" parent="1" vertex="1">
          <mxGeometry x="20" y="580" width="950" height="60" as="geometry" />
        </mxCell>
        <mxCell id="7ZlgL_FnNeLyH_ivH3gK-29" value="FSx for Windows (NAS over SMB/CIFS)" style="rounded=1;whiteSpace=wrap;html=1;" parent="1" vertex="1">
          <mxGeometry x="20" y="650" width="950" height="60" as="geometry" />
        </mxCell>
        <mxCell id="7ZlgL_FnNeLyH_ivH3gK-30" value="Instance Store&lt;br&gt;micro seconf latency&lt;br&gt;&amp;gt;100,000 IOPS" style="rounded=1;whiteSpace=wrap;html=1;" parent="1" vertex="1">
          <mxGeometry x="260" y="180" width="120" height="60" as="geometry" />
        </mxCell>
        <mxCell id="7ZlgL_FnNeLyH_ivH3gK-31" value="vol" style="shape=cylinder;whiteSpace=wrap;html=1;boundedLbl=1;backgroundOutline=1;" parent="1" vertex="1">
          <mxGeometry x="320" y="145" width="30" height="40" as="geometry" />
        </mxCell>
        <mxCell id="7ZlgL_FnNeLyH_ivH3gK-32" value="/dev/sda" style="text;html=1;strokeColor=none;fillColor=none;align=center;verticalAlign=middle;whiteSpace=wrap;rounded=0;" parent="1" vertex="1">
          <mxGeometry x="30" y="240" width="40" height="20" as="geometry" />
        </mxCell>
        <mxCell id="7ZlgL_FnNeLyH_ivH3gK-33" value="/dev/sdb" style="text;html=1;strokeColor=none;fillColor=none;align=center;verticalAlign=middle;whiteSpace=wrap;rounded=0;" parent="1" vertex="1">
          <mxGeometry x="120" y="240" width="40" height="20" as="geometry" />
        </mxCell>
        <mxCell id="7ZlgL_FnNeLyH_ivH3gK-34" value="General Purpose SSD" style="text;html=1;strokeColor=none;fillColor=none;align=center;verticalAlign=middle;whiteSpace=wrap;rounded=0;" parent="1" vertex="1">
          <mxGeometry x="50" y="340" width="40" height="20" as="geometry" />
        </mxCell>
        <mxCell id="7ZlgL_FnNeLyH_ivH3gK-35" value="Provisioned&lt;br&gt;IOPS&lt;br&gt;12,000" style="text;html=1;strokeColor=none;fillColor=none;align=center;verticalAlign=middle;whiteSpace=wrap;rounded=0;" parent="1" vertex="1">
          <mxGeometry x="120" y="340" width="40" height="20" as="geometry" />
        </mxCell>
        <mxCell id="7ZlgL_FnNeLyH_ivH3gK-36" value="1 x 500GB" style="text;html=1;strokeColor=none;fillColor=none;align=center;verticalAlign=middle;whiteSpace=wrap;rounded=0;" parent="1" vertex="1">
          <mxGeometry x="320" y="125" width="60" height="20" as="geometry" />
        </mxCell>
        <mxCell id="7ZlgL_FnNeLyH_ivH3gK-37" value="" style="shape=flexArrow;endArrow=classic;startArrow=classic;html=1;entryX=0.658;entryY=0.971;entryDx=0;entryDy=0;entryPerimeter=0;fillColor=#d5e8d4;strokeColor=#82b366;" parent="1" source="7ZlgL_FnNeLyH_ivH3gK-6" target="7ZlgL_FnNeLyH_ivH3gK-2" edge="1">
          <mxGeometry width="50" height="50" relative="1" as="geometry">
            <mxPoint x="210" y="260" as="sourcePoint" />
            <mxPoint x="260" y="210" as="targetPoint" />
          </mxGeometry>
        </mxCell>
        <mxCell id="7ZlgL_FnNeLyH_ivH3gK-38" value="" style="shape=flexArrow;endArrow=classic;startArrow=classic;html=1;entryX=0.658;entryY=0.971;entryDx=0;entryDy=0;entryPerimeter=0;fillColor=#fff2cc;strokeColor=#d6b656;" parent="1" edge="1">
          <mxGeometry width="50" height="50" relative="1" as="geometry">
            <mxPoint x="199.9951327433628" y="270" as="sourcePoint" />
            <mxPoint x="201.54" y="227.68" as="targetPoint" />
          </mxGeometry>
        </mxCell>
      </root>
    </mxGraphModel>
  </diagram>
</mxfile>
